HIERARCHY
ROOT Hips
{
	OFFSET 0.00000 0.00000 0.00000
	CHANNELS 6 Xposition Yposition Zposition Yrotation Zrotation Xrotation 
	JOINT Lumbar
	{
		OFFSET 0 0 0
		CHANNELS 3 Zrotation Xrotation Yrotation
		JOINT Neck
		{
			OFFSET 0.00 0.2701 0.00
			CHANNELS 3 Zrotation Xrotation Yrotation
			End Site
			{
				OFFSET 0.00 0.1379 0.00
			}
		}
		JOINT RightShoulder
		{
			OFFSET 0.0119 0.2289 0.1181
			CHANNELS 3 Zrotation Xrotation Yrotation
			JOINT RightElbow
			{
				OFFSET 0.00 -0.1475 0.00
				CHANNELS 2 Zrotation Yrotation
				JOINT RightWrist
				{
					OFFSET 0.00 -0.1605 0.00
					CHANNELS 2 Zrotation Xrotation
					End Site
					{
						OFFSET 0.0040 -0.1068 0.0006
					}
				}
			}
		}
		JOINT LeftShoulder
		{
			OFFSET 0.0119 0.2289 -0.1181
			CHANNELS 3 Zrotation Xrotation Yrotation
			JOINT LeftElbow
			{
				OFFSET 0.00 -0.1475 0.00
				CHANNELS 2 Zrotation Yrotation
				JOINT LeftWrist
				{
					OFFSET 0.00 -0.1605 0.00
					CHANNELS 2 Zrotation Xrotation
					End Site
					{
						OFFSET 0.0040 -0.1068 -0.0006
					}
				}
			}
		}
	}
	JOINT RightHip
	{
		OFFSET 0.0316 -0.0424 0.0458
		CHANNELS 3 Zrotation Xrotation Yrotation
		JOINT RightKnee
		{
			OFFSET 0.00 -0.2438 0.00
			CHANNELS 1 Zrotation
			JOINT RightAnkle
			{
				OFFSET 0.00 -0.2449 0.00
				CHANNELS 3 Zrotation Xrotation Yrotation
				End Site
				{
					OFFSET 0.1237 -0.0542 0.0051
				}
			}
		}
	}
	JOINT LeftHip
	{
		OFFSET 0.0316 -0.0424 -0.0458
		CHANNELS 3 Zrotation Xrotation Yrotation
		JOINT LeftKnee
		{
			OFFSET 0.00 -0.2438 0.00
			CHANNELS 1 Zrotation
			JOINT LeftAnkle
			{
				OFFSET 0.00 -0.2449 0.00
				CHANNELS 3 Zrotation Xrotation Yrotation
				End Site
				{
					OFFSET 0.1237 -0.0542 -0.0051
				}
			}
		}
	}
}
MOTION
Frames: 22
Frame Time: 0.02
0.34706 0.00389 0.00647 176.255 0 -2.07834 9.53633 2.93061 -9.7742 -40.07779 2.64979 0.97397 12.42225 -34.66835 10.50462 64.58023 18.46847 -36.35991 9.53478 62.85839 52.73073 -21.34614 58.90543 -81.84777 -16.1977 3.19038 126.65967 -5.47887 -14.85555 -80.28938 6.70403 -8.6533 -6.34192 126.67959 -13.68745 -16.0894 -114.47908 21.73913 -28.0035 -5.31504
0.34693 0.00392 0.00658 176.23332 0 -2.22908 9.71666 3.01812 -9.84684 -40.16157 2.83435 1.22604 12.67523 -34.86954 10.21036 64.84077 23.50691 -35.30264 8.23476 60.33845 52.25761 -18.6174 58.2772 -82.36043 -16.37238 3.297 126.66327 -5.2445 -13.98962 -80.1362 6.63796 -7.79966 -5.81116 126.67965 -13.68766 -15.91951 -113.45922 21.57663 -26.89723 -5.47264
0.34677 0.00399 0.00673 176.22959 0 -2.42891 9.8754 3.16976 -9.90742 -40.25528 3.04101 1.48656 13.02724 -35.09437 9.98215 64.93972 29.93127 -33.78513 6.61339 57.84783 51.59327 -15.96593 57.47742 -82.92366 -16.55186 3.39635 126.60957 -5.05749 -13.10416 -80.02035 6.48299 -6.4755 -5.19919 126.67971 -13.68785 -15.69808 -112.19114 21.35064 -25.475 -5.83094
0.34662 0.00405 0.00686 176.2134 0 -2.60588 10.04176 3.29239 -9.96793 -40.34476 3.23732 1.74887 13.34569 -35.31754 9.73976 65.09531 35.65893 -32.51136 5.16659 55.37152 51.00033 -13.31186 56.73181 -83.48315 -16.73195 3.50415 126.57548 -4.84905 -12.2398 -79.8898 6.3611 -5.40815 -4.64486 126.67975 -13.68789 -15.49575 -111.03122 21.15343 -24.18088 -6.06924
0.34649 0.0041 0.00701 176.21452 0 -2.78515 10.21701 3.4151 -10.05117 -40.43473 3.43574 1.98987 13.61805 -35.50337 9.42957 65.32509 41.68487 -31.09863 3.59601 52.76977 50.46556 -10.50734 56.08277 -83.96574 -16.89892 3.59243 126.56711 -4.63987 -11.32244 -79.75213 6.27242 -4.16819 -4.0052 126.67988 -13.68854 -15.31098 -109.88887 20.96104 -22.94776 -6.42333
0.34631 0.00416 0.00712 176.18492 0 -2.9707 10.36822 3.55205 -10.08467 -40.5248 3.63466 2.27581 14.00926 -35.77198 9.27658 65.35976 47.40264 -29.86041 2.20953 50.4419 49.76706 -8.04298 55.19122 -84.62016 -17.09583 3.71867 126.49271 -4.44448 -10.5126 -79.63699 6.09269 -3.17206 -3.52409 126.67982 -13.68797 -15.07727 -108.65165 20.73767 -21.51434 -6.58772
0.34601 0.0042 0.00709 176.05628 0 -3.16883 10.46466 3.71969 -9.98109 -40.61985 3.82972 2.69026 14.70222 -36.26615 9.54312 64.90645 52.05273 -29.25373 1.39377 48.83556 48.66276 -6.45786 53.69843 -85.71969 -17.36202 3.95296 126.24278 -4.26436 -9.9894 -79.57824 5.68256 -2.9713 -3.48812 126.6791 -13.68352 -14.72672 -107.21484 20.49477 -19.60426 -6.15872
0.34566 0.00425 0.00702 175.89761 0 -3.37021 10.53651 3.89809 -9.82828 -40.71313 4.0242 3.14816 15.51144 -36.84208 9.96575 64.2599 56.32159 -28.8318 0.77762 47.51 47.40158 -5.22148 51.96389 -86.99205 -17.6601 4.22504 125.92997 -4.09816 -9.57799 -79.54017 5.18427 -3.02966 -3.61574 126.6782 -13.67793 -14.32854 -105.6914 20.21313 -17.50491 -5.5359
0.34534 0.00428 0.00697 175.75949 0 -3.56559 10.61569 4.06698 -9.70007 -40.80242 4.21894 3.58169 16.2685 -37.37883 10.31557 63.69423 60.68379 -28.29959 0.08112 46.07461 46.21334 -3.8536 50.32307 -88.19646 -17.95218 4.47867 125.65063 -3.93327 -9.12516 -79.48988 4.72566 -2.96373 -3.6771 126.67745 -13.6732 -13.94762 -104.2065 19.91656 -15.49256 -5.01628
0.34501 0.00434 0.00692 175.59408 0 -3.78224 10.71066 4.25777 -9.56274 -40.91242 4.41522 4.03516 17.02617 -37.92546 10.67423 63.1525 65.43086 -27.85967 -0.67008 44.56445 45.01062 -2.37394 48.74261 -89.36083 -18.21026 4.73782 125.34809 -3.73912 -8.63166 -79.45195 4.26305 -2.9093 -3.70431 126.67645 -13.66704 -13.58031 -102.71526 19.75653 -13.4623 -4.44132
0.34468 0.00436 0.00686 175.47658 0 -3.95411 10.76678 4.40444 -9.43199 -40.97859 4.60692 4.45719 17.80893 -38.46999 11.05238 62.5168 69.2689 -27.28095 -1.25613 43.27718 43.80423 -1.20942 46.9834 -90.64544 -18.54454 4.99411 125.08037 -3.60693 -8.25015 -79.39382 3.79224 -2.8983 -3.83909 126.6759 -13.66356 -13.17788 -101.22133 19.30199 -11.43185 -3.93104
0.34439 0.00423 0.00676 175.51238 0 -4.00658 10.72517 4.42842 -9.33921 -40.92508 4.79412 4.78239 18.63113 -38.99362 11.43085 61.67234 70.67191 -26.24548 -1.43004 42.52958 42.61997 -0.82601 44.77428 -92.24766 -19.09888 5.23654 124.91875 -3.6567 -8.14643 -79.26522 3.29258 -2.94837 -4.26175 126.67667 -13.6681 -12.65672 -99.73064 18.05966 -9.42274 -3.66307
0.3441 0.00406 0.00665 175.59504 0 -4.01281 10.64468 4.40705 -9.25354 -40.82721 4.97515 5.07409 19.47408 -39.51101 11.82562 60.74026 71.16971 -25.07175 -1.44393 41.99752 41.43986 -0.74778 42.39864 -93.95814 -19.72489 5.47406 124.79572 -3.76556 -8.15217 -79.11732 2.79323 -3.03486 -4.78229 126.67788 -13.67531 -12.10802 -98.24396 16.52026 -7.4277 -3.46313
0.3438 0.00392 0.00654 175.64683 0 -4.03646 10.57984 4.40486 -9.1594 -40.74908 5.15362 5.38093 20.30823 -40.0283 12.22317 59.84672 72.0868 -23.98191 -1.53274 41.37167 40.2625 -0.53228 40.1087 -95.60214 -20.30743 5.71184 124.65885 -3.83759 -8.11091 -78.98423 2.31257 -3.10383 -5.23738 126.67885 -13.68107 -11.59449 -96.76293 15.10592 -5.44193 -3.22001
0.34353 0.00375 0.00644 175.73686 0 -4.07484 10.52292 4.40879 -9.08494 -40.67301 5.35462 5.69045 21.14482 -40.56201 12.585 58.9513 72.95787 -22.80846 -1.60557 40.73923 39.05874 -0.32412 37.76278 -97.33049 -20.93969 5.9598 124.50394 -3.95175 -8.06298 -78.82589 1.74979 -3.18497 -5.78408 126.67998 -13.6878 -10.98495 -95.24502 13.72955 -3.3769 -3.02084
0.34321 0.00363 0.00633 175.7602 0 -4.07224 10.44028 4.38949 -8.97272 -40.58172 5.50737 5.98489 21.97847 -41.05753 13.02082 58.04205 73.71489 -21.77503 -1.67619 40.16657 37.91457 -0.1672 35.5035 -98.89992 -21.48177 6.18425 124.39682 -3.99265 -8.05218 -78.71592 1.35865 -3.24695 -6.16433 126.68088 -13.69317 -10.56783 -93.80872 12.20735 -1.49073 -2.75029
0.34277 0.00368 0.00619 175.57557 0 -3.96134 10.29875 4.31323 -8.74716 -40.46249 5.52701 6.2541 22.80903 -41.46062 13.67566 57.11288 74.37415 -21.15282 -1.78067 39.71802 36.92207 -0.0885 33.47118 -100.06111 -21.78555 6.35027 124.41084 -3.81106 -8.1284 -78.73821 1.44802 -3.23906 -6.03155 126.68103 -13.69407 -10.70379 -92.57555 10.3273 -0.02608 -2.25361
0.34229 0.00378 0.00605 175.32453 0 -3.81194 10.13222 4.2158 -8.48497 -40.32871 5.49853 6.50756 23.63348 -41.82281 14.40031 56.17448 74.95164 -20.67699 -1.8892 39.31897 35.99257 -0.04769 31.54313 -101.04768 -21.99123 6.49159 124.47218 -3.55469 -8.23588 -78.81065 1.70963 -3.21078 -5.73188 126.68094 -13.69352 -11.03203 -91.42934 8.31624 1.24706 -1.68596
0.34182 0.00385 0.00591 175.11231 0 -3.68441 9.97569 4.13061 -8.24464 -40.19972 5.49302 6.76262 24.45349 -42.19593 15.0797 55.24331 75.57218 -20.13949 -1.99644 38.88759 35.04261 0.02069 29.60315 -102.07519 -22.22242 6.64057 124.51313 -3.33628 -8.32071 -78.86419 1.88817 -3.196 -5.528 126.68097 -13.69369 -11.26238 -90.25701 6.38354 2.55936 -1.15992
0.34137 0.00392 0.00576 174.86581 0 -3.53693 9.82392 4.03289 -7.98257 -40.07761 5.48277 7.03996 25.30463 -42.6017 15.81607 54.29586 76.13935 -19.57735 -2.096 38.50374 34.05757 0.0376 27.50679 -103.26647 -22.53435 6.80458 124.55078 -3.10321 -8.44376 -78.90145 2.08577 -3.16523 -5.24625 126.68097 -13.69372 -11.53517 -89.02597 4.36067 4.06583 -0.59683
0.34086 0.00401 0.00563 174.6736 0 -3.4223 9.65632 3.95672 -7.75692 -39.93738 5.47091 7.26766 26.08938 -42.92921 16.45112 53.38164 76.80598 -19.10236 -2.21418 38.03192 33.1613 0.15285 25.764 -104.07663 -22.65678 6.93132 124.60591 -2.88206 -8.49484 -78.98377 2.286 -3.16187 -5.08221 126.68096 -13.69366 -11.76675 -87.94063 2.49876 5.13206 -0.09294
0.3402 0.0041 0.00552 174.65378 0 -3.40953 9.45553 3.94645 -7.64142 -39.7585 5.46741 7.36153 26.69018 -43.05574 16.7803 52.56007 77.80688 -18.83839 -2.38764 37.28653 32.48876 0.58352 24.96699 -103.85138 -22.25456 6.96254 124.69893 -2.71268 -8.32431 -79.18694 2.43773 -3.24303 -5.31407 126.68097 -13.6937 -11.82759 -87.21276 1.11255 4.94474 0.22801
